<?xml version="1.0" encoding="UTF-8" standalone="no"?>
<!-- Created with Inkscape (http://www.inkscape.org/) -->

<svg
   width="53.606411mm"
   height="11.70868mm"
   viewBox="0 0 53.606411 11.708681"
   version="1.1"
   id="svg1"
   inkscape:version="1.3 (1:1.3+202307231459+0e150ed6c4)"
   sodipodi:docname="logo.svg"
   xmlns:inkscape="http://www.inkscape.org/namespaces/inkscape"
   xmlns:sodipodi="http://sodipodi.sourceforge.net/DTD/sodipodi-0.dtd"
   xmlns="http://www.w3.org/2000/svg"
   xmlns:svg="http://www.w3.org/2000/svg"
   xmlns:rdf="http://www.w3.org/1999/02/22-rdf-syntax-ns#"
   xmlns:cc="http://creativecommons.org/ns#"
   xmlns:dc="http://purl.org/dc/elements/1.1/">
  <title
     id="title1">X11.US</title>
  <sodipodi:namedview
     id="namedview1"
     pagecolor="#f0c44e"
     bordercolor="#000000"
     borderopacity="0.25"
     inkscape:showpageshadow="2"
     inkscape:pageopacity="0.0"
     inkscape:pagecheckerboard="0"
     inkscape:deskcolor="#d1d1d1"
     inkscape:document-units="mm"
     inkscape:zoom="1.4142136"
     inkscape:cx="159.45258"
     inkscape:cy="60.104076"
     inkscape:window-width="1868"
     inkscape:window-height="1016"
     inkscape:window-x="0"
     inkscape:window-y="0"
     inkscape:window-maximized="1"
     inkscape:current-layer="layer1" />
  <defs
     id="defs1" />
  <g
     inkscape:label="logo"
     inkscape:groupmode="layer"
     id="layer1"
     transform="translate(-62.921267,-1.1244283)">
    <path
       d="m 62.921267,1.2107279 c 0.379976,0.4948832 0.832051,0.9991672 1.189591,1.5637289 1.338578,2.1136315 2.646134,4.2469686 3.982186,6.3990926 0.437634,0.7187876 0.869776,1.4049866 1.275375,2.1063316 0.235059,0.40645 0.363762,0.839031 0.02119,1.27124 h 4.951636 C 74.033359,12.170485 73.671569,11.805903 73.405898,11.381167 71.559847,8.4298169 69.732476,5.4665211 67.902358,2.5052226 67.652186,2.1004204 67.475438,1.6779603 67.764899,1.2107279 Z"
       style="opacity:1;fill:#150e0d;stroke-width:0.0855056"
       id="path22" />
    <path
       d="m 76.409333,1.2138285 c 0.54619,0.3066011 0.65164,0.7557274 0.65474,1.2376506 0.01769,2.7893196 0.03899,5.5791914 0.03049,8.3684819 -0.0019,0.612304 0.06527,1.276588 -0.541052,1.725992 h 4.497917 c -0.109446,-0.349731 -0.283353,-0.693785 -0.314193,-1.050065 -0.05876,-0.678842 -0.03609,-1.364576 -0.04703,-2.0903114 1.4e-5,-2.7577295 0,-5.4725431 0,-8.1917481 z"
       style="opacity:1;fill:#160f0e;stroke-width:0.0855056"
       id="path21" />
    <path
       d="m 84.958682,1.2133118 c 0.541849,0.3104015 0.649973,0.7626706 0.652673,1.2485026 0.01581,2.8267767 0.02319,5.653668 0.03049,8.5204106 -0.04801,0.622882 0.03277,1.244246 -0.557589,1.660363 h 4.709274 c -0.461846,-0.308356 -0.521383,-0.719919 -0.523483,-1.142049 -0.01574,-3.2431746 -0.02537,-6.4864418 -0.03669,-9.7296385 -5.99e-4,-0.1818675 0,-0.3640303 0,-0.5575887 z"
       style="opacity:1;fill:#140d0d;stroke-width:0.0858625"
       id="path20" />
    <path
       d="m 109.42696,1.4572245 c -1.01659,0.4392201 -1.70377,1.1597471 -2.09497,2.1941813 -0.0333,0.486441 -0.1109,0.9407934 -0.0894,1.3900961 0.0484,1.0114379 0.43075,1.8477536 1.39682,2.3192382 0.81466,0.3975855 1.62926,0.7953634 2.44378,1.1932089 0.11263,0.036068 0.22508,0.072463 0.3855,0.1322916 0.13126,0.061239 0.21467,0.098431 0.29817,0.1359091 0.69247,0.3233788 1.41745,0.5927863 2.06965,0.9834025 0.84214,0.5043688 0.94364,2.0778698 0.0284,2.6199948 0.0255,0.04275 0.0757,0.05653 0.15451,0.05943 0.15845,-0.06912 0.2914,-0.120679 0.41651,-0.187069 0.88877,-0.471629 1.64685,-1.066004 1.9513,-2.08566 0.41838,-1.4012691 -0.11203,-3.0839925 -1.41231,-3.9010542 -0.93917,-0.5901402 -2.01733,-0.9573327 -3.02617,-1.4391886 -0.73866,-0.3528034 -1.51329,-0.6600181 -2.1854,-1.1151774 -0.83582,-0.5660194 -0.88783,-1.4510084 -0.25993,-2.2510254 -0.0105,-0.011679 -0.0206,-0.023497 -0.0765,-0.048576 z"
       style="opacity:1;fill:#160f0e;stroke-width:0.0855056"
       id="path19" />
    <path
       d="m 95.237641,1.1828227 c 0.499664,0.3453442 0.538518,0.8026932 0.570508,1.2578043 0.01854,0.2635282 0.0174,0.5288091 0.01757,0.7932333 0.0015,1.9767822 0.0024,3.9530886 0.001,5.9298706 -5.75e-4,0.8277008 0.301475,1.5316781 0.953947,2.0551721 0.358931,0.287977 0.76007,0.54266 1.177706,0.740523 0.833855,0.394989 1.74725,0.50684 2.658235,0.60048 0.20889,0.02141 0.42236,0.0031 0.63355,0.0031 -1.399921,-0.599785 -1.795323,-1.478305 -1.816423,-2.6055261 -0.0475,-2.5186877 -0.01317,-5.0386588 0.0041,-7.558195 0.003,-0.4390854 0.05595,-0.8894277 0.596349,-1.2164632 h -0.563276 z"
       style="opacity:1;fill:#150e0d;stroke-width:0.0845348"
       id="path17" />
    <path
       d="m 92.299836,10.843732 v 1.721342 c 0.273611,0 0.527035,-10e-7 0.805118,0 h 1.418002 v -1.721342 z"
       style="opacity:1;fill:#18100e;stroke-width:0.0588118"
       id="path16" />
    <path
       d="m 107.15319,7.7922384 v 4.0431636 c 0.23272,-0.753576 0.70212,-0.959535 1.3162,-0.666626 0.15323,0.07309 0.30532,0.148723 0.45785,0.223243 0.0134,-0.01295 0.0268,-0.0257 0.0444,-0.08062 -0.84311,-1.025463 -1.4199,-2.155449 -1.8185,-3.5191646 z"
       style="opacity:1;fill:#1a120f;stroke-width:0.0855056"
       id="path15" />
    <path
       d="m 104.61588,1.149233 c -0.0155,0.065679 -0.0313,0.1313186 -0.0579,0.3612182 0.28418,1.9107313 0.57947,3.657457 0.84956,5.2549764 0.13008,-1.6014702 0.23205,-4.1709174 0.73019,-5.0813435 -0.16991,-0.2608865 -0.32422,-0.3609561 -0.51573,-0.421163 -0.36017,-0.011048 -0.68319,-0.062438 -1.00614,-0.1136881 z"
       style="opacity:1;fill:#1f1610;stroke-width:0.200617"
       id="path14" />
    <path
       d="m 70.608136,1.2060771 c 0.114266,0.4568179 0.203809,0.8148638 0.315743,1.2882934 h -5.16e-4 c 0.02255,0.7724741 0.02274,1.4290183 0.02274,2.0029785 0.979579,-1.0655289 2.01367,-2.1904975 3.025655,-3.2912719 z"
       style="opacity:1;fill:#201710;stroke-width:0.254371"
       id="path9" />
    <path
       d="M 67.123078,8.7926941 C 65.71064,10.123546 64.435351,11.32519 63.123839,12.56094 h 4.544942 C 67.489718,11.759986 67.33022,11.046047 67.172687,10.190025 67.158377,9.6497857 67.142048,9.2511974 67.123078,8.7926941 Z"
       style="opacity:1;fill:#1a120f;stroke-width:0.326186"
       id="path2" />
    <path
       d="m 115.60797,1.1244283 c -1.02739,1.0865917 -2.30087,0.783319 -3.48402,0.3700033 1.19117,1.0012406 2.36616,1.9888802 3.48402,2.9285034 V 3.7030823 Z"
       style="opacity:1;fill:#221911;stroke-width:0.141046"
       id="path1" />
  </g>
  <metadata
     id="metadata1">
    <rdf:RDF>
      <cc:Work
         rdf:about="">
        <dc:creator>
          <cc:Agent>
            <dc:title>Norman Khine</dc:title>
          </cc:Agent>
        </dc:creator>
        <dc:title>X11.US</dc:title>
      </cc:Work>
    </rdf:RDF>
  </metadata>
</svg>
